# xmcd
#
# Track frame offsets: 
#        150
#        15187
#        32058
#        47310
#        62926
#        83985
#        103415
#        115869
#        138173
#        154793
#
# Disc length: 2247 seconds
#
# Revision: 0
# Processed by: cddbd v1.5.2PL0 Copyright (c) Steve Scherf et al.
# Submitted via: ExactAudioCopy v0.90b4
#
DISCID=7708c50a
DTITLE=Tyler Childers - Purgatory
DYEAR=2017
DGENRE=Country
TTITLE0=I Swear (To God)
TTITLE1=Feathered Indians
TTITLE2=Tattoos
TTITLE3=Born Again
TTITLE4=Whitehouse Road
TTITLE5=Banded Clovis
TTITLE6=Purgatory
TTITLE7=Honky Tonk Flame
TTITLE8=Universal Sound
TTITLE9=Lady May
EXTD=
EXTT0=
EXTT1=
EXTT2=
EXTT3=
EXTT4=
EXTT5=
EXTT6=
EXTT7=
EXTT8=
EXTT9=
PLAYORDER=
